<?xml version="1.0" encoding="utf-8"?>
<!-- Generator: Adobe Illustrator 24.2.3, SVG Export Plug-In . SVG Version: 6.00 Build 0)  -->
<svg version="1.1" id="Слой_1" xmlns="http://www.w3.org/2000/svg" xmlns:xlink="http://www.w3.org/1999/xlink" x="0px" y="0px"
	 viewBox="0 0 1000 1000" style="enable-background:new 0 0 1000 1000;" xml:space="preserve">
<style type="text/css">
	.st0{fill:#FFFFFF;}
</style>
<g>
	<path class="st0" d="M859.3,613.1"/>
	<path class="st0" d="M476.2,226.9c0,0-50.6,81.2,0,81.2C476.2,308.1,528,310.4,476.2,226.9z"/>
	<path class="st0" d="M543,228.9c0,0-23.5,92.7,24.7,77.3C567.7,306.2,617.7,292.7,543,228.9z"/>
	<path class="st0" d="M621.4,232.1c0,0-4.8,95.5,39.4,71C660.8,303.1,707.2,280,621.4,232.1z"/>
	<path class="st0" d="M330.2,232.1c0,0,4.8,95.5-39.4,71C290.9,303.1,244.5,280,330.2,232.1z"/>
	<path class="st0" d="M273.1,349.5c0,0,4.8,95.5-39.4,71C233.7,420.4,187.3,397.4,273.1,349.5z"/>
	<path class="st0" d="M213.8,452.8c0,0,4.8,95.5-39.4,71C174.4,523.7,128,500.7,213.8,452.8z"/>
	<path class="st0" d="M404.7,228.9c0,0,23.5,92.7-24.7,77.3C380,306.2,330,292.7,404.7,228.9z"/>
	<path class="st0" d="M378.4,345.4c0,0,23.5,92.7-24.7,77.3C353.6,422.7,303.6,409.2,378.4,345.4z"/>
	<path class="st0" d="M677.3,349.5c0,0-4.8,95.5,39.4,71C716.6,420.4,763,397.4,677.3,349.5z"/>
	<path class="st0" d="M734.4,452.8c0,0-4.8,95.5,39.4,71C773.8,523.7,820.2,500.7,734.4,452.8z"/>
	<path class="st0" d="M572,345.4c0,0-23.5,92.7,24.7,77.3C596.7,422.7,646.7,409.2,572,345.4z"/>
	<path class="st0" d="M476.2,343.3c0,0-50.6,81.2,0,81.2C476.2,424.4,528,426.8,476.2,343.3z"/>
	<path class="st0" d="M670.7,169.9h-20.3c-30.2-55.3-88.5-94.7-157.8-101.1V28.4c0-10.2-8.9-18.4-19.8-18.4S453,18.3,453,28.4v40.3
		c-69.2,6.4-127.6,45.8-157.8,101.1H275c-9.7,0-17.6,7.3-17.6,16.4c0,9.1,7.9,16.4,17.6,16.4h395.7c9.7,0,17.6-7.3,17.6-16.4
		C688.3,177.2,680.4,169.9,670.7,169.9z"/>
	<path class="st0" d="M765,610h-28.2c-15,0-27.8,5.3-38.4,15.9l-5.5,5.5l-16.6-60.8c-13-47.6-55.4-80-104.7-80H361.3
		c-49.3,0-91.8,32.4-104.7,80L240,631.4l-5.5-5.5C223.9,615.4,211,610,196.1,610h-28.2c-14.9,0-27.1,12.2-27.1,27.1
		c0,14.9,12.2,27.1,27.1,27.1h43.6c3,0,5.6,1.1,7.7,3.2l4.4,4.4c-32.7,14.2-55.7,46.7-55.7,84.7V876c0,20.9,17.1,38,38,38v21.7
		c0,29.8,24.4,54.2,54.3,54.2c29.7,0,54.3-24.6,54.3-54.2V914h304v21.7c0,29.7,24.6,54.2,54.3,54.2c29.8,0,54.3-24.4,54.3-54.2V914
		c20.9,0,38-17.1,38-38V756.6c0-37.9-22.9-70.5-55.6-84.7l4.4-4.4c2.1-2.1,4.7-3.2,7.7-3.2H765c14.9,0,27.1-12.3,27.1-27.1
		C792.1,622.3,779.9,610,765,610z M260.1,794.6c-21,0-38-17-38-38s17-38,38-38s38,17,38,38S281.1,794.6,260.1,794.6z M531.6,859.8
		H401.2c-14.9,0-27.1-12.2-27.1-27.1c0-14.9,12.2-27.2,27.1-27.2h130.3c14.9,0,27.1,12.3,27.1,27.2
		C558.7,847.5,546.5,859.8,531.6,859.8z M287.3,664.3l21.7-79.4c6.5-24,27.6-40,52.4-40h210.2c24.8,0,45.8,16,52.4,40l21.6,79.4
		H287.3z M656.9,794.6c-21,0-38-17-38-38s17-38,38-38s38,17,38,38C694.8,777.6,677.8,794.6,656.9,794.6z"/>
</g>
</svg>
