<?xml version="1.0" encoding="utf-8"?>
<!-- Generator: Adobe Illustrator 24.2.3, SVG Export Plug-In . SVG Version: 6.00 Build 0)  -->
<svg version="1.1" id="Capa_1" xmlns="http://www.w3.org/2000/svg" xmlns:xlink="http://www.w3.org/1999/xlink" x="0px" y="0px"
	 viewBox="0 0 489.8 489.8" style="enable-background:new 0 0 489.8 489.8;" xml:space="preserve">
<style type="text/css">
	.st0{fill:#FFFFFF;}
</style>
<g>
	<g>
		<g>
			<path class="st0" d="M172.1,293.1L172.1,293.1h314.5l0,0c0-40.8-33-73.9-73.9-73.9H246.1C205.2,219.2,172.1,252.3,172.1,293.1z"
				/>
			<path class="st0" d="M246.1,489.8h166.8c40.8,0,73.9-33,73.9-73.9H172.1C172.1,456.7,205.2,489.8,246.1,489.8z"/>
			<path class="st0" d="M462.5,330H196.2c-14,0-25.3,11.3-25.3,25.3s11.3,25.3,25.3,25.3h266.3c14,0,25.3-11.3,25.3-25.3
				S476.5,330,462.5,330z"/>
			<polygon class="st0" points="343.1,0 28.4,0 2,61.4 369.2,61.4 			"/>
			<path class="st0" d="M152.4,396.1h26c-15.9-7-26.8-22.5-26.8-41.2c0-19.4,12.4-36.2,29.9-42.4h-29.2v-19.8
				c0-51.7,42-93.7,93.7-93.7H338l12.4-118.6h-330l43.1,409.3h124.8C141.9,452.9,152.4,396.1,152.4,396.1z"/>
		</g>
	</g>
</g>
</svg>
