<?xml version="1.0" encoding="utf-8"?>
<!-- Generator: Adobe Illustrator 24.2.3, SVG Export Plug-In . SVG Version: 6.00 Build 0)  -->
<svg version="1.1"
	 id="svg6584" xmlns:cc="http://creativecommons.org/ns#" xmlns:dc="http://purl.org/dc/elements/1.1/" xmlns:inkscape="http://www.inkscape.org/namespaces/inkscape" xmlns:rdf="http://www.w3.org/1999/02/22-rdf-syntax-ns#" xmlns:sodipodi="http://sodipodi.sourceforge.net/DTD/sodipodi-0.dtd" xmlns:svg="http://www.w3.org/2000/svg"
	 xmlns="http://www.w3.org/2000/svg" xmlns:xlink="http://www.w3.org/1999/xlink" x="0px" y="0px" viewBox="0 0 100 100"
	 style="enable-background:new 0 0 100 100;" xml:space="preserve">
<style type="text/css">
	.st0{fill:#FFFFFF;}
</style>
<path id="rect7223-2-4-9" class="st0" d="M22.9,12.5c-2.3,0-4.2,1.9-4.2,4.2v66.7c0,2.1,2.1,4.2,4.2,4.2h37.5c2.1,0,4.2-2.1,4.2-4.2
	V62.5h2.1c2.1,0,2.1,2.1,2.1,2.1v8.3c0,4.2,2.1,6.2,6.2,6.2s6.2-2.1,6.2-6.2c0-4.9,0-18.7,0-22.9s-8.3-8.3-8.3-12.5V25h-4.2
	l-4.2-4.2v-4.2c0-2.3-1.9-4.2-4.2-4.2L22.9,12.5z M27.1,20.8h29.2v16.7H27.1V20.8z M64.6,33.3h4.2c0,0,0,3.5,0,6.2
	c0,4.2,8.3,8.3,8.3,12.5v20.8C77.1,75,75,75,75,75s-2.1,0-2.1-2.1c0,0,0-8.3,0-10.4c0-2.1-2.1-4.2-4.2-4.2c-1.4,0-4.2,0-4.2,0
	L64.6,33.3z"/>
</svg>
