<?xml version="1.0" encoding="utf-8"?>
<!-- Generator: Adobe Illustrator 24.2.3, SVG Export Plug-In . SVG Version: 6.00 Build 0)  -->
<svg version="1.1" id="Слой_1" xmlns="http://www.w3.org/2000/svg" xmlns:xlink="http://www.w3.org/1999/xlink" x="0px" y="0px"
	 viewBox="0 0 1000 1000" style="enable-background:new 0 0 1000 1000;" xml:space="preserve">
<style type="text/css">
	.st0{fill:#FFFFFF;}
</style>
<g>
	<g transform="translate(0.000000,245.000000) scale(0.100000,-0.100000)">
		<path class="st0" d="M2115.4-247.5c-124.6-82.4-162.9-245.4-84.3-364.2c26.8-40.3,5.7-67.1-440.9-601.9
			c-370-440.9-479.2-561.7-525.2-571.2c-42.2-9.6-109.3-74.7-270.3-270.3C614.4-2271.8,572.3-2312,528.2-2312
			c-63.3,0-116.9,51.8-116.9,111.2c0,57.5,65.2,118.9,124.6,118.9c26.8,0,70.9,21.1,95.8,47.9c63.3,61.3,63.3,149.5,0,210.9
			c-120.8,122.7-416,0-498.4-205.1C-20.1-2413.6,386.3-2774,741-2567c34.5,19.2,139.9,126.5,233.9,237.7
			c228.1,268.4,279.9,341.2,279.9,393c0,51.7,897.1,1131,920.1,1106.1c7.7-7.7,170.6-255,362.3-548.2l347-534.8l-28.8-184
			c-15.3-101.6-34.5-205.1-38.3-228.1l-9.6-44.1H2265h-540.6l-350.8-350.8L1024.7-3071l3.8-370l5.7-370l207-128.4l207-126.5
			l88.2-182.1c337.4-697.8,1217.2-866.5,1777-343.1c69,63.3,143.8,145.7,166.8,182.1l40.3,65.2H5539h2018.5l40.3-65.2
			c23-36.4,99.7-118.8,170.6-185.9c425.6-400.6,1075.4-402.6,1516.3-5.8c61.3,57.5,147.6,159.1,189.8,224.3
			c76.7,120.8,78.6,122.7,251.1,184l174.4,63.3v983.4v985.3l-109.3,40.3c-61.3,23-502.2,187.9-981.5,368
			c-479.2,178.3-885.6,331.6-902.9,341.2s-162.9,209-325.9,444.7c-339.3,490.7-440.9,605.7-580.8,669l-99.7,46l-1067.7,5.8
			l-1067.7,5.8L4753-322c-11.5-88.2-220.4-2007-220.4-2031.9c0-9.6-51.8-15.3-115-15.3c-78.6,0-115,7.7-115,24.9
			c0,11.5,17.3,170.6,38.3,348.9c34.5,297.1,34.5,327.8,7.7,348.9C4264.3-1583.6,2596.5-391.3,2470-303.1
			C2303.3-188.1,2222.7-174.7,2115.4-247.5z M6886.6-692.2c30.7-24.9,149.5-182.1,262.6-347l207-299.1L7224-1470.5l-130.4-132.3
			h-736.1h-736.1l11.5,379.6c7.7,207,17.2,423.6,23,479.2l9.6,99.7h582.7H6829L6886.6-692.2z M2813.1-3295.4
			c318.2-185.9,375.7-592.3,118.9-849.2c-170.6-172.5-402.6-210.9-619.2-101.6c-197.5,97.8-299,258.8-299,479.2
			s141.9,431.3,341.2,504.1C2479.6-3214.9,2703.9-3232.2,2813.1-3295.4z M8711.5-3260.9c394.9-139.9,479.2-680.5,145.7-931.6
			c-118.8-90.1-228.1-120.8-385.3-109.3c-435.1,36.4-642.2,557.8-350.8,887.5C8268.7-3247.5,8502.6-3186.1,8711.5-3260.9z"/>
	</g>
</g>
</svg>
